<svg xmlns="http://www.w3.org/2000/svg" xmlns:xlink="http://www.w3.org/1999/xlink" version="1.1" x="0px" y="0px" viewBox="0 0 100 125" style="enable-background:new 0 0 100 100;" xml:space="preserve"><path d="M63.8,45.1c0.1-0.3,0.2-0.7,0.2-1.1v-6c0-1.7-1.3-3-3-3h-1.1c-0.3-3.2-2.1-6-4.9-7.7V20c0-2.8-2.2-5-5-5s-5,2.2-5,5v7.3  c-2.8,1.6-4.6,4.5-4.9,7.7H39c-1.7,0-3,1.3-3,3v6c0,0.4,0.1,0.7,0.2,1.1C33.8,45.5,32,47.5,32,50v32c0,2.8,2.2,5,5,5h26  c2.8,0,5-2.2,5-5V50C68,47.5,66.2,45.5,63.8,45.1z M46.4,28.8c0.3-0.2,0.6-0.5,0.6-0.9V20c0-1.7,1.3-3,3-3s3,1.3,3,3v7.9  c0,0.4,0.2,0.7,0.6,0.9c2.4,1.2,4.1,3.5,4.4,6.2H42.1C42.4,32.4,44,30.1,46.4,28.8z M38,38c0-0.6,0.4-1,1-1h22c0.6,0,1,0.4,1,1v6  c0,0.6-0.4,1-1,1H39c-0.6,0-1-0.4-1-1V38z M66,82c0,1.7-1.3,3-3,3H37c-1.7,0-3-1.3-3-3v-5h9c0.6,0,1-0.4,1-1s-0.4-1-1-1h-9v-8h9  c0.6,0,1-0.4,1-1s-0.4-1-1-1h-9v-8h9c0.6,0,1-0.4,1-1s-0.4-1-1-1h-9v-5c0-1.7,1.3-3,3-3h26c1.7,0,3,1.3,3,3V82z M41,42v-2  c0-0.6,0.4-1,1-1s1,0.4,1,1v2c0,0.6-0.4,1-1,1S41,42.6,41,42z M45,42v-2c0-0.6,0.4-1,1-1s1,0.4,1,1v2c0,0.6-0.4,1-1,1S45,42.6,45,42  z M49,42v-2c0-0.6,0.4-1,1-1s1,0.4,1,1v2c0,0.6-0.4,1-1,1S49,42.6,49,42z M53,42v-2c0-0.6,0.4-1,1-1s1,0.4,1,1v2c0,0.6-0.4,1-1,1  S53,42.6,53,42z M57,42v-2c0-0.6,0.4-1,1-1s1,0.4,1,1v2c0,0.6-0.4,1-1,1S57,42.6,57,42z"/><text x="0" y="115" fill="#000000" font-size="5px" font-weight="bold" font-family="'Helvetica Neue', Helvetica, Arial-Unicode, Arial, Sans-serif">Created by Setyo Ari Wibowo</text><text x="0" y="120" fill="#000000" font-size="5px" font-weight="bold" font-family="'Helvetica Neue', Helvetica, Arial-Unicode, Arial, Sans-serif">from the Noun Project</text></svg>